# xmcd
#
# Track frame offsets:
#	150
#	32733
#	48415
#	64016
#	79871
#	96650
#	120143
#	138341
#	157762
#
# Disc length: 2354 seconds
#
# Revision: 0
# Processed by: cddbd v1.5.2PL0 Copyright (c) Steve Scherf et al.
# Submitted via: EasyCDDAExtractor 10.0.2.1
#
DISCID=6b093009
DTITLE=BushDoctor - Jerry's Mix
DYEAR=2006
DGENRE=Reggae Pop
TTITLE0=Going To Jamaica 1
TTITLE1=Going To Jamaica 2
TTITLE2=Going To Jamaica 3
TTITLE3=Going To Jamaica 4
TTITLE4=Going To Jamaica 5
TTITLE5=Going To Jamaica 6
TTITLE6=New York Guys
TTITLE7=Bit Of Love
TTITLE8=Nobody's Gonna
EXTD=
EXTT0=
EXTT1=
EXTT2=
EXTT3=
EXTT4=
EXTT5=
EXTT6=
EXTT7=
EXTT8=
PLAYORDER=
